<svg width="15" height="16" viewBox="0 0 15 16" fill="none" xmlns="http://www.w3.org/2000/svg">
<path fill-rule="evenodd" clip-rule="evenodd" d="M5.76321 12.8159C7.4346 12.8159 8.78953 11.461 8.78953 9.78958C8.78953 8.11819 7.4346 6.76326 5.76321 6.76326C4.09182 6.76326 2.73689 8.11819 2.73689 9.78958C2.73689 11.461 4.09182 12.8159 5.76321 12.8159ZM5.76321 14.0264C8.10315 14.0264 10.0001 12.1295 10.0001 9.78958C10.0001 7.44963 8.10315 5.55273 5.76321 5.55273C3.42327 5.55273 1.52637 7.44963 1.52637 9.78958C1.52637 12.1295 3.42327 14.0264 5.76321 14.0264Z" fill="#D0D4DC"/>
<path fill-rule="evenodd" clip-rule="evenodd" d="M9.39465 3.13167C8.49842 3.13167 7.6938 3.52049 7.13879 4.14059C6.91586 4.38967 6.53321 4.41087 6.28413 4.18793C6.03505 3.965 6.01385 3.58236 6.23679 3.33327C7.01172 2.46745 8.13979 1.92114 9.39465 1.92114C11.7346 1.92114 13.6315 3.81804 13.6315 6.15798C13.6315 7.41285 13.0852 8.54092 12.2194 9.31585C11.9703 9.53879 11.5876 9.51759 11.3647 9.26851C11.1418 9.01943 11.163 8.63678 11.412 8.41385C12.0321 7.85884 12.421 7.05422 12.421 6.15798C12.421 4.4866 11.066 3.13167 9.39465 3.13167Z" fill="#D0D4DC"/>
</svg>
