<svg width="142" height="32" viewBox="0 0 142 32" fill="none" xmlns="http://www.w3.org/2000/svg">
<g clip-path="url(#clip0_68_291)">
<path d="M4.66663 7.89911H15.6666L22.3333 24.2324L4.66663 25.2324V7.89911Z" fill="#181C33"/>
<path d="M20.9168 6.18948V6.63766L22.0515 7.38461L20.7669 7.83277L20.403 9.15594L19.568 8.06753L18.1978 8.13156L18.9685 7.0218L18.4761 5.74131L19.7821 6.12546L20.1889 5.784L13.0382 1.6651L0.064209 9.17729V24.1803L13.1024 31.6712L26.1406 24.1803V9.17729L20.9168 6.18948ZM8.07125 10.3937L11.5824 8.38765V19.4212H8.07125V10.3937ZM11.6038 24.4364H8.07125V20.8937H11.6038V24.4364ZM14.8152 24.4364H13.1024V20.8937H20.9596L14.8152 24.4364Z" fill="#FFDAAE"/>
<path d="M22.4582 0.0429688L23.0148 1.19541L24.3208 1.38748L23.3788 2.28382L23.5929 3.56431L22.4582 2.96675L21.3021 3.56431L21.5162 2.28382L20.5956 1.38748L21.8801 1.19541L22.4582 0.0429688Z" fill="#FFDAAE"/>
<path d="M22.865 4.37526L23.6572 4.67404L24.3851 4.20453L24.3209 5.05819L25.006 5.59172L24.171 5.80514L23.8927 6.61611L23.4217 5.8905L22.5653 5.86916L23.1005 5.18624L22.865 4.37526Z" fill="#FFDAAE"/>
</g>
<path d="M49.2142 19.9215V22.9626H34.6666V8.84528H38.2955V19.9215H49.2142Z" fill="#FFDAAE"/>
<path d="M59.8438 23.1548C53.6137 23.1548 50.9482 20.7859 50.9482 15.888V8.84534H54.5771V15.888C54.5771 17.8728 55.123 20.1136 59.8438 20.1136C64.5645 20.1136 65.1104 17.8408 65.1104 15.888V8.84534H68.7393V15.888C68.7393 20.7859 66.0417 23.1548 59.8438 23.1548Z" fill="#FFDAAE"/>
<path d="M92.9211 22.9627H89.2922V13.295L83.4154 22.9627H80.7821L74.9052 13.295V22.9627H71.2764V8.84534H76.1898L82.0987 18.8011L88.0077 8.84534H92.9211V22.9627Z" fill="#FFDAAE"/>
<path d="M99.2154 22.9627H95.5865V8.84534H99.2154V22.9627Z" fill="#FFDAAE"/>
<path d="M120.057 8.84534V22.9627H115.112L105.478 12.3987V22.9627H101.849V8.84534H106.794L116.461 19.4414V8.84534H120.057Z" fill="#FFDAAE"/>
<path d="M135.921 19.9536H127.443L125.934 22.9627H121.952L129.242 8.84534H134.155L141.477 22.9627H137.463L135.921 19.9536ZM134.573 17.2645L131.715 11.5344L128.824 17.2645H134.573Z" fill="#FFDAAE"/>
<defs>
<clipPath id="clip0_68_291">
<rect width="26.6667" height="32" fill="white"/>
</clipPath>
</defs>
</svg>
