<svg width="28" height="34" viewBox="0 0 28 34" fill="none" xmlns="http://www.w3.org/2000/svg">
<path d="M21.7075 6.41844V6.88647L22.8887 7.66651L21.5515 8.13453L21.1726 9.51632L20.3034 8.37969L18.8771 8.44655L19.6794 7.28763L19.1668 5.95041L20.5263 6.35158L20.9497 5.99499L13.5059 1.6936L0 9.53861V25.2063L13.5728 33.0291L27.1455 25.2063V9.53861L21.7075 6.41844ZM8.33532 10.809L11.9904 8.714V20.2364H8.33532V10.809ZM12.0127 25.4738H8.33532V21.7742H12.0127V25.4738ZM15.3557 25.4738H13.5728V21.7742H21.7521L15.3557 25.4738Z" fill="#FFDAAE"/>
<path d="M23.312 0L23.8915 1.2035L25.251 1.40408L24.2704 2.34013L24.4932 3.67735L23.312 3.05331L22.1085 3.67735L22.3314 2.34013L21.373 1.40408L22.7103 1.2035L23.312 0Z" fill="#FFDAAE"/>
<path d="M23.7356 4.52424L24.5602 4.83626L25.318 4.34595L25.2511 5.23743L25.9643 5.7946L25.0951 6.01747L24.8054 6.86437L24.3151 6.10662L23.4236 6.08433L23.9808 5.37115L23.7356 4.52424Z" fill="#FFDAAE"/>
</svg>
