<svg width="126" height="42" viewBox="0 0 126 42" fill="none" xmlns="http://www.w3.org/2000/svg">
<path d="M21.7075 6.41844V6.88647L22.8887 7.66651L21.5515 8.13453L21.1726 9.51632L20.3034 8.37969L18.8771 8.44655L19.6794 7.28763L19.1668 5.95041L20.5263 6.35158L20.9497 5.99499L13.5059 1.6936L0 9.53861V25.2063L13.5728 33.0291L27.1455 25.2063V9.53861L21.7075 6.41844ZM8.33532 10.809L11.9904 8.714V20.2364H8.33532V10.809ZM12.0127 25.4738H8.33532V21.7742H12.0127V25.4738ZM15.3557 25.4738H13.5728V21.7742H21.7521L15.3557 25.4738Z" fill="#FFDAAE"/>
<path d="M23.312 0L23.8915 1.2035L25.251 1.40408L24.2704 2.34013L24.4932 3.67735L23.312 3.05331L22.1085 3.67735L22.3314 2.34013L21.373 1.40408L22.7103 1.2035L23.312 0Z" fill="#FFDAAE"/>
<path d="M23.7356 4.52424L24.5602 4.83626L25.318 4.34595L25.2511 5.23743L25.9643 5.7946L25.0951 6.01747L24.8054 6.86437L24.3151 6.10662L23.4236 6.08433L23.9808 5.37115L23.7356 4.52424Z" fill="#FFDAAE"/>
<path d="M52.9849 20.4062V23.3889H38.7622V9.54297H42.31V20.4062H52.9849Z" fill="#FFDAAE"/>
<path d="M63.3771 23.5773C57.2861 23.5773 54.6802 21.2539 54.6802 16.4502V9.54297H58.228V16.4502C58.228 18.3968 58.7617 20.5946 63.3771 20.5946C67.9924 20.5946 68.5261 18.3654 68.5261 16.4502V9.54297H72.0739V16.4502C72.0739 21.2539 69.4366 23.5773 63.3771 23.5773Z" fill="#FFDAAE"/>
<path d="M95.7158 23.3889H92.168V13.9071L86.4224 23.3889H83.8478L78.1023 13.9071V23.3889H74.5544V9.54297H79.3581L85.1351 19.3073L90.9121 9.54297H95.7158V23.3889Z" fill="#FFDAAE"/>
<path d="M101.869 23.3889H98.3217V9.54297H101.869V23.3889Z" fill="#FFDAAE"/>
<path d="M104.99 23.6399H110.039L115.495 18.754L120.931 23.6399H126L117.979 16.5145L126 9.38916H120.931L115.495 14.2751L110.039 9.38916H104.99L113.011 16.5145L104.99 23.6399Z" fill="#FFDAAE"/>
<path d="M71.1607 38.2383V29.8383H74.1727L75.8407 37.1583H76.0567V29.8383H77.6167V38.2383H74.6047L72.9367 30.9183H72.7207V38.2383H71.1607ZM79.1997 38.2383V29.8383H84.5997V31.2783H80.7837V33.2823H84.2637V34.7223H80.7837V36.7983H84.6717V38.2383H79.1997ZM87.7882 38.2383V31.2783H85.3402V29.8383H91.8202V31.2783H89.3722V38.2383H87.7882ZM93.5709 38.2383L92.4669 29.8383H94.0389L94.8549 37.1343H95.0709L96.1269 29.8383H98.8629L99.9189 37.1343H100.135L100.951 29.8383H102.523L101.419 38.2383H98.6829L97.6029 30.7743H97.3869L96.3069 38.2383H93.5709ZM106.874 38.4063C105.818 38.4063 104.978 38.1183 104.354 37.5423C103.73 36.9583 103.418 36.1263 103.418 35.0463V33.0303C103.418 31.9503 103.73 31.1223 104.354 30.5463C104.978 29.9623 105.818 29.6703 106.874 29.6703C107.93 29.6703 108.77 29.9623 109.394 30.5463C110.018 31.1223 110.33 31.9503 110.33 33.0303V35.0463C110.33 36.1263 110.018 36.9583 109.394 37.5423C108.77 38.1183 107.93 38.4063 106.874 38.4063ZM106.874 36.9903C107.466 36.9903 107.926 36.8183 108.254 36.4743C108.582 36.1303 108.746 35.6703 108.746 35.0943V32.9823C108.746 32.4063 108.582 31.9463 108.254 31.6023C107.926 31.2583 107.466 31.0863 106.874 31.0863C106.29 31.0863 105.83 31.2583 105.494 31.6023C105.166 31.9463 105.002 32.4063 105.002 32.9823V35.0943C105.002 35.6703 105.166 36.1303 105.494 36.4743C105.83 36.8183 106.29 36.9903 106.874 36.9903ZM111.719 38.2383V29.8383H115.367C115.895 29.8383 116.355 29.9303 116.747 30.1143C117.139 30.2983 117.443 30.5583 117.659 30.8943C117.875 31.2303 117.983 31.6263 117.983 32.0823V32.2263C117.983 32.7303 117.863 33.1383 117.623 33.4503C117.383 33.7623 117.087 33.9903 116.735 34.1343V34.3503C117.055 34.3663 117.303 34.4783 117.479 34.6863C117.655 34.8863 117.743 35.1543 117.743 35.4903V38.2383H116.159V35.7183C116.159 35.5263 116.107 35.3703 116.003 35.2503C115.907 35.1303 115.743 35.0703 115.511 35.0703H113.303V38.2383H111.719ZM113.303 33.6303H115.199C115.575 33.6303 115.867 33.5303 116.075 33.3303C116.291 33.1223 116.399 32.8503 116.399 32.5143V32.3943C116.399 32.0583 116.295 31.7903 116.087 31.5903C115.879 31.3823 115.583 31.2783 115.199 31.2783H113.303V33.6303ZM119.301 38.2383V29.8383H120.885V33.1743H121.101L123.825 29.8383H125.853L122.349 33.9783L125.973 38.2383H123.885L121.101 34.8303H120.885V38.2383H119.301Z" fill="white" fill-opacity="0.6"/>
</svg>
